<svg width="687" height="176" viewBox="0 0 687 176" fill="none" xmlns="http://www.w3.org/2000/svg">
<g filter="url(#filter0_d_873_5198)">
<path d="M102.9 114.5V16.5H110.1V114.5C110.1 139.1 89.9 159.3 63.3 159.3C36.7 159.3 16.5 139.1 16.5 114.5V16.5H23.7V114.5C23.7 135.1 40.7 152.1 63.3 152.1C85.9 152.1 102.9 135.1 102.9 114.5ZM261.388 109.7L154.788 22.1L159.388 16.5L254.188 94.3V16.5H261.388V109.7ZM148.188 63.3L254.788 150.9L250.188 156.5L155.388 78.7V156.5H148.188V63.3ZM414.513 109.7L307.913 22.1L312.513 16.5L407.313 94.3V16.5H414.513V109.7ZM301.313 63.3L407.913 150.9L403.313 156.5L308.513 78.7V156.5H301.313V63.3ZM449.238 127.3H538.838L549.638 153.9L543.038 156.5L534.038 134.5H453.838L445.038 156.5L438.438 153.9L449.238 127.3ZM493.038 16.5H495.038L523.838 90.1H464.238L493.038 16.5ZM494.038 32.5L474.838 82.9H513.238L494.038 32.5ZM545.563 23.7V16.5H635.163V23.7H593.963V156.5H586.763V23.7H545.563ZM663.227 156.5V16.5H670.427V156.5H663.227Z" fill="white"/>
</g>
<defs>
<filter id="filter0_d_873_5198" x="0.5" y="0.5" width="685.926" height="174.8" filterUnits="userSpaceOnUse" color-interpolation-filters="sRGB">
<feFlood flood-opacity="0" result="BackgroundImageFix"/>
<feColorMatrix in="SourceAlpha" type="matrix" values="0 0 0 0 0 0 0 0 0 0 0 0 0 0 0 0 0 0 127 0" result="hardAlpha"/>
<feOffset/>
<feGaussianBlur stdDeviation="8"/>
<feComposite in2="hardAlpha" operator="out"/>
<feColorMatrix type="matrix" values="0 0 0 0 0.109804 0 0 0 0 0.643137 0 0 0 0 0.788235 0 0 0 0.996078 0"/>
<feBlend mode="normal" in2="BackgroundImageFix" result="effect1_dropShadow_873_5198"/>
<feBlend mode="normal" in="SourceGraphic" in2="effect1_dropShadow_873_5198" result="shape"/>
</filter>
</defs>
</svg>
