<svg width="17" height="17" viewBox="0 0 17 17" fill="none" xmlns="http://www.w3.org/2000/svg">
<path d="M15.1367 10.2266V5.22656H10.8789L12.6367 7.57031L11.2695 8.54688C9.60286 6.28125 8.66536 5.00521 8.45703 4.71875C8.2487 5.00521 7.3112 6.28125 5.64453 8.54688L4.27734 7.57031L6.03516 5.22656H1.77734V10.2266H15.1367ZM15.1367 14.3672V12.7266H1.77734V14.3672H15.1367ZM6.54297 2.14062C6.38672 1.95833 6.19141 1.86719 5.95703 1.86719C5.72266 1.86719 5.52734 1.95833 5.37109 2.14062C5.21484 2.29688 5.13672 2.49219 5.13672 2.72656C5.13672 2.96094 5.21484 3.15625 5.37109 3.3125C5.52734 3.46875 5.72266 3.54688 5.95703 3.54688C6.19141 3.54688 6.38672 3.46875 6.54297 3.3125C6.69922 3.15625 6.77734 2.96094 6.77734 2.72656C6.77734 2.49219 6.69922 2.29688 6.54297 2.14062ZM11.543 2.14062C11.3867 1.95833 11.1914 1.86719 10.957 1.86719C10.7227 1.86719 10.5273 1.95833 10.3711 2.14062C10.2148 2.29688 10.1367 2.49219 10.1367 2.72656C10.1367 2.96094 10.2148 3.15625 10.3711 3.3125C10.5273 3.46875 10.7227 3.54688 10.957 3.54688C11.1914 3.54688 11.3867 3.46875 11.543 3.3125C11.6992 3.15625 11.7773 2.96094 11.7773 2.72656C11.7773 2.49219 11.6992 2.29688 11.543 2.14062ZM15.1367 3.54688C15.6055 3.54688 15.9961 3.71615 16.3086 4.05469C16.6211 4.36719 16.7773 4.75781 16.7773 5.22656V14.3672C16.7773 14.8359 16.6211 15.2396 16.3086 15.5781C15.9961 15.8906 15.6055 16.0469 15.1367 16.0469H1.77734C1.30859 16.0469 0.917969 15.8906 0.605469 15.5781C0.292969 15.2396 0.136719 14.8359 0.136719 14.3672V5.22656C0.136719 4.75781 0.292969 4.36719 0.605469 4.05469C0.917969 3.71615 1.30859 3.54688 1.77734 3.54688H3.61328C3.50911 3.18229 3.45703 2.90885 3.45703 2.72656C3.45703 2.04948 3.70443 1.46354 4.19922 0.96875C4.69401 0.473958 5.27995 0.226562 5.95703 0.226562C6.81641 0.226562 7.50651 0.591146 8.02734 1.32031L8.45703 1.90625L8.88672 1.32031C9.06901 1.00781 9.36849 0.747396 9.78516 0.539062C10.2018 0.330729 10.5924 0.226562 10.957 0.226562C11.6341 0.226562 12.2201 0.473958 12.7148 0.96875C13.2096 1.46354 13.457 2.04948 13.457 2.72656C13.457 2.90885 13.4049 3.18229 13.3008 3.54688H15.1367Z" fill="white"/>
</svg>
