<svg width="19" height="16" viewBox="0 0 19 16" fill="none" xmlns="http://www.w3.org/2000/svg">
<path d="M3.63672 11.7266H15.2773L11.5273 6.72656L8.63672 10.4766L6.52734 7.97656L3.63672 11.7266ZM16.957 0.046875C17.3737 0.046875 17.7513 0.229167 18.0898 0.59375C18.4544 0.932292 18.6367 1.3099 18.6367 1.72656V13.3672C18.6367 13.7839 18.4544 14.1745 18.0898 14.5391C17.7513 14.8776 17.3737 15.0469 16.957 15.0469H1.95703C1.51432 15.0469 1.1237 14.8776 0.785156 14.5391C0.446615 14.2005 0.277344 13.8099 0.277344 13.3672V1.72656C0.277344 1.3099 0.446615 0.932292 0.785156 0.59375C1.14974 0.229167 1.54036 0.046875 1.95703 0.046875H16.957Z" fill="white"/>
</svg>
