<svg width="21" height="18" viewBox="0 0 21 18" fill="none" xmlns="http://www.w3.org/2000/svg">
<mask id="path-1-inside-1_1022_2283" fill="white">
<path d="M8.45934 17.5979H3.53478V9.65362H0.561469L10.457 0.733673L20.3526 9.65362H17.3793V17.5979H12.4547V11.6513H8.45934V17.5979Z"/>
</mask>
<path d="M8.45934 17.5979V18.7873H9.64866V17.5979H8.45934ZM3.53478 17.5979H2.34546V18.7873H3.53478V17.5979ZM3.53478 9.65362H4.72411V8.46429H3.53478V9.65362ZM0.561469 9.65362L-0.234835 8.77022L-2.53427 10.8429H0.561469V9.65362ZM10.457 0.733673L11.2533 -0.149727L10.457 -0.867522L9.66073 -0.149727L10.457 0.733673ZM20.3526 9.65362V10.8429H23.4483L21.1489 8.77022L20.3526 9.65362ZM17.3793 9.65362V8.46429H16.19V9.65362H17.3793ZM17.3793 17.5979V18.7873H18.5686V17.5979H17.3793ZM12.4547 17.5979H11.2654V18.7873H12.4547V17.5979ZM12.4547 11.6513H13.6441V10.462H12.4547V11.6513ZM8.45934 11.6513V10.462H7.27001V11.6513H8.45934ZM8.45934 16.4086H3.53478V18.7873H8.45934V16.4086ZM4.72411 17.5979V9.65362H2.34546V17.5979H4.72411ZM3.53478 8.46429H0.561469V10.8429H3.53478V8.46429ZM1.35777 10.537L11.2533 1.61707L9.66073 -0.149727L-0.234835 8.77022L1.35777 10.537ZM9.66073 1.61707L19.5563 10.537L21.1489 8.77022L11.2533 -0.149727L9.66073 1.61707ZM20.3526 8.46429H17.3793V10.8429H20.3526V8.46429ZM16.19 9.65362V17.5979H18.5686V9.65362H16.19ZM17.3793 16.4086H12.4547V18.7873H17.3793V16.4086ZM13.6441 17.5979V11.6513H11.2654V17.5979H13.6441ZM12.4547 10.462H8.45934V12.8406H12.4547V10.462ZM7.27001 11.6513V17.5979H9.64866V11.6513H7.27001Z" fill="white" mask="url(#path-1-inside-1_1022_2283)"/>
</svg>
