<svg width="25" height="25" viewBox="0 0 25 25" fill="none" xmlns="http://www.w3.org/2000/svg">
<path d="M10.3516 7.18848H13.5776M10.3516 10.8754H16.3428M10.3516 14.5622H16.3428" stroke="white" stroke-width="1.2" stroke-linecap="round" stroke-linejoin="round"/>
<path fill-rule="evenodd" clip-rule="evenodd" d="M21.3305 15.3566C21.4117 14.5581 21.4117 13.5581 21.4117 12.2961L21.4117 9.69366C21.4119 8.72773 21.412 8.1048 21.244 7.51525C21.1519 7.19204 21.0228 6.88051 20.8594 6.58682C20.5614 6.05112 20.1208 5.61074 19.4377 4.92786L19.2939 4.78412C18.611 4.10097 18.1707 3.66041 17.635 3.36236C17.3413 3.19897 17.0297 3.06993 16.7065 2.9778C16.117 2.80975 15.494 2.80987 14.5281 2.81007L13.3466 2.81009V2.81208C12.4845 2.81725 11.7589 2.83578 11.1465 2.90212C10.2753 2.99651 9.55181 3.19429 8.92975 3.64624C8.55807 3.91629 8.2312 4.24315 7.96116 4.61483C7.67335 5.01097 7.48862 5.44824 7.36802 5.93859L6.61232 6.14108C4.27671 6.7669 2.89066 9.16762 3.51648 11.5032L5.54423 19.0709C6.17006 21.4065 8.57077 22.7926 10.9064 22.1667L16.2483 20.7354C17.2685 20.462 18.1075 19.85 18.6769 19.0527C18.9569 18.955 19.2187 18.8284 19.4659 18.6632C19.944 18.3438 20.3544 17.9333 20.6738 17.4553C21.0731 16.8578 21.2472 16.1748 21.3305 15.3566ZM14.5392 4.19269L14.4265 4.19267C13.0424 4.19268 12.0571 4.19414 11.2954 4.27666C10.5418 4.35831 10.0895 4.5126 9.74241 4.76478C9.4881 4.94954 9.26446 5.17319 9.07969 5.4275C8.82751 5.77459 8.67322 6.22693 8.59158 6.9805C8.50853 7.74701 8.50758 8.7399 8.50758 10.1378V12.2577C8.50758 13.5666 8.50842 14.4963 8.5817 15.2167C8.65381 15.9255 8.7903 16.3547 9.01243 16.6872C9.23099 17.0143 9.51183 17.2951 9.83891 17.5136C10.1714 17.7358 10.6005 17.8723 11.3094 17.9444C12.0298 18.0177 12.9594 18.0185 14.2683 18.0185C15.5773 18.0185 16.5069 18.0177 17.2273 17.9444C17.9361 17.8723 18.3653 17.7358 18.6978 17.5136C19.0249 17.2951 19.3057 17.0143 19.5243 16.6872C19.7464 16.3547 19.8829 15.9255 19.955 15.2167C20.0283 14.4963 20.0291 13.5666 20.0291 12.2577V9.95343C20.0291 9.49938 20.0276 9.22839 20.0015 9.03416C19.9896 8.94516 19.9755 8.90059 19.9672 8.88051C19.9653 8.87586 19.9638 8.87281 19.9629 8.87103L19.9616 8.86878L19.9594 8.86751C19.9576 8.86658 19.9545 8.86509 19.9499 8.86318C19.9298 8.85492 19.8852 8.84082 19.7962 8.82886C19.602 8.80275 19.331 8.80128 18.877 8.80128L17.914 8.80128C17.5151 8.80133 17.1493 8.80137 16.8517 8.76137C16.5241 8.71732 16.1778 8.61367 15.8929 8.32884C15.6081 8.044 15.5045 7.69769 15.4604 7.37003C15.4204 7.07249 15.4204 6.70673 15.4205 6.30779L15.4205 5.16048C15.4205 4.79946 15.4195 4.58422 15.4025 4.427C15.3925 4.33452 15.3798 4.29663 15.375 4.28565C15.3616 4.26758 15.3456 4.25158 15.3275 4.23815C15.3165 4.23342 15.2786 4.22067 15.1862 4.21065C15.0419 4.19502 14.8489 4.19293 14.5392 4.19269ZM15.9169 19.3927C15.4337 19.4011 14.8991 19.4011 14.3067 19.4011H14.23C12.968 19.4011 11.968 19.4011 11.1695 19.3199C10.3513 19.2366 9.66827 19.0624 9.07079 18.6632C8.59274 18.3438 8.18228 17.9333 7.86286 17.4553C7.46363 16.8578 7.28945 16.1748 7.20622 15.3566C7.12499 14.5581 7.12499 13.5581 7.125 12.2961V10.0968C7.12499 9.04491 7.12499 8.16355 7.16875 7.42334L6.97016 7.47655C5.37211 7.90475 4.42376 9.54734 4.85195 11.1454L6.87971 18.7131C7.3079 20.3111 8.9505 21.2595 10.5485 20.8313L15.8904 19.3999C15.8993 19.3975 15.9081 19.3951 15.9169 19.3927ZM19.6512 7.25901C19.6834 7.31679 19.7136 7.37557 19.7418 7.43527C19.4955 7.41863 19.2161 7.41866 18.9182 7.41869L17.9552 7.41869C17.5012 7.41869 17.2302 7.41723 17.036 7.39111C16.947 7.37915 16.9024 7.36505 16.8823 7.35679C16.8777 7.35488 16.8746 7.35339 16.8728 7.35246L16.8706 7.35119L16.8693 7.34895C16.8684 7.34717 16.8669 7.34411 16.865 7.33946C16.8567 7.31939 16.8426 7.27481 16.8307 7.18581C16.8045 6.99158 16.8031 6.72059 16.8031 6.26654L16.8031 5.12795C16.8031 4.89583 16.8031 4.67765 16.7929 4.48303C16.8504 4.51037 16.9071 4.53956 16.9628 4.57054C17.3089 4.76314 17.6086 5.05413 18.3881 5.83364C19.1677 6.61315 19.4586 6.91285 19.6512 7.25901Z" fill="white"/>
</svg>
