<svg width="19" height="11" viewBox="0 0 19 11" fill="none" xmlns="http://www.w3.org/2000/svg">
<path d="M18.1289 1.05469C18.4674 1.39323 18.6367 1.78385 18.6367 2.22656C18.6367 2.66927 18.4674 3.0599 18.1289 3.39844C17.7904 3.71094 17.3997 3.86719 16.957 3.86719H16.918C16.7357 3.86719 16.6055 3.85417 16.5273 3.82812L13.5586 6.79688C13.6107 6.95312 13.6367 7.09635 13.6367 7.22656C13.6367 7.66927 13.4674 8.0599 13.1289 8.39844C12.7904 8.71094 12.3997 8.86719 11.957 8.86719C11.5143 8.86719 11.1237 8.71094 10.7852 8.39844C10.4466 8.0599 10.2773 7.66927 10.2773 7.22656C10.2773 7.09635 10.3034 6.95312 10.3555 6.79688L8.20703 4.64844C8.05078 4.70052 7.90755 4.72656 7.77734 4.72656C7.64714 4.72656 7.50391 4.70052 7.34766 4.64844L3.55859 8.4375C3.61068 8.59375 3.63672 8.73698 3.63672 8.86719C3.63672 9.3099 3.46745 9.70052 3.12891 10.0391C2.79036 10.3776 2.39974 10.5469 1.95703 10.5469C1.51432 10.5469 1.1237 10.3776 0.785156 10.0391C0.446615 9.70052 0.277344 9.3099 0.277344 8.86719C0.277344 8.42448 0.446615 8.04688 0.785156 7.73438C1.1237 7.39583 1.51432 7.22656 1.95703 7.22656C2.16536 7.22656 2.30859 7.23958 2.38672 7.26562L6.17578 3.47656C6.14974 3.39844 6.13672 3.25521 6.13672 3.04688C6.13672 2.60417 6.29297 2.21354 6.60547 1.875C6.94401 1.53646 7.33464 1.36719 7.77734 1.36719C8.22005 1.36719 8.61068 1.53646 8.94922 1.875C9.28776 2.21354 9.45703 2.60417 9.45703 3.04688C9.45703 3.25521 9.44401 3.39844 9.41797 3.47656L11.5273 5.58594C11.6055 5.5599 11.7487 5.54688 11.957 5.54688C12.1654 5.54688 12.3086 5.5599 12.3867 5.58594L15.3555 2.65625C15.3034 2.5 15.2773 2.35677 15.2773 2.22656C15.2773 1.78385 15.4466 1.39323 15.7852 1.05469C16.1237 0.716146 16.5143 0.546875 16.957 0.546875C17.3997 0.546875 17.7904 0.716146 18.1289 1.05469Z" fill="white"/>
</svg>
