<svg width="19" height="16" viewBox="0 0 19 16" fill="none" xmlns="http://www.w3.org/2000/svg">
<path d="M12.7773 6.72656L6.95703 10.0469V3.36719L12.7773 6.72656ZM16.957 11.7266V1.72656H1.95703V11.7266H16.957ZM16.957 0.046875C17.4258 0.046875 17.8164 0.216146 18.1289 0.554688C18.4674 0.867188 18.6367 1.25781 18.6367 1.72656L18.5977 11.7266C18.5977 12.1693 18.4284 12.5599 18.0898 12.8984C17.7773 13.2109 17.3997 13.3672 16.957 13.3672H12.7773V15.0469H6.13672V13.3672H1.95703C1.48828 13.3672 1.08464 13.2109 0.746094 12.8984C0.433594 12.5859 0.277344 12.1953 0.277344 11.7266V1.72656C0.277344 1.25781 0.433594 0.867188 0.746094 0.554688C1.08464 0.216146 1.48828 0.046875 1.95703 0.046875H16.957Z" fill="white"/>
</svg>
